<svg version="1.1" viewBox="0.0 0.0 180.0 292.0" fill="none" stroke="none" stroke-linecap="square" stroke-miterlimit="10" xmlns:xlink="http://www.w3.org/1999/xlink" xmlns="http://www.w3.org/2000/svg"><clipPath id="p.0"><path d="m0 0l180.0 0l0 292.0l-180.0 0l0 -292.0z" clip-rule="nonzero"/></clipPath><g clip-path="url(#p.0)"><path fill="#000000" fill-opacity="0.0" d="m0 0l180.0 0l0 292.0l-180.0 0z" fill-rule="evenodd"/><path fill="#3d4351" d="m13.109375 17.918686l0 -10.109375l-3.640625 0l0 -2.328125l9.921875 0l0 2.328125l-3.625 0l0 10.109375l-2.65625 0zm15.014191 0l-2.4375 -4.421875l-1.953125 0l0 4.421875l-2.640625 0l0 -12.4375l5.8125 0q1.90625 0 3.046875 1.125q1.140625 1.125 1.140625 2.875q0 1.453125 -0.78125 2.453125q-0.765625 0.984375 -1.953125 1.25l2.8125 4.734375l-3.046875 0zm-1.609375 -6.75q0.8125 0 1.34375 -0.453125q0.53125 -0.453125 0.53125 -1.234375q0 -0.78125 -0.53125 -1.21875q-0.53125 -0.453125 -1.34375 -0.453125l-2.78125 0l0 3.359375l2.78125 0zm6.5740967 6.75l0 -12.4375l2.640625 0l0 12.4375l-2.640625 0zm11.127441 0.25q-2.828125 0 -4.71875 -1.8125q-1.890625 -1.8125 -1.890625 -4.65625q0 -2.828125 1.875 -4.625q1.875 -1.8125 4.734375 -1.8125q3.40625 0 5.15625 2.78125l-2.203125 1.203125q-0.421875 -0.65625 -1.1875 -1.140625q-0.75 -0.484375 -1.765625 -0.484375q-1.6875 0 -2.796875 1.171875q-1.09375 1.15625 -1.09375 2.90625q0 1.8125 1.109375 2.953125q1.125 1.140625 2.78125 1.140625q0.84375 0 1.5625 -0.296875q0.71875 -0.296875 1.09375 -0.65625l0 -1.5l-3.28125 0l0 -2.3125l5.9375 0l0 4.78125q-2.109375 2.359375 -5.3125 2.359375z" fill-rule="nonzero"/><path fill="#3d4351" d="m99.897354 18.137436q-3.09375 0 -4.78125 -1.859375l1.46875 -1.84375q1.328125 1.359375 3.296875 1.359375q1.125 0 1.71875 -0.53125q0.59375 -0.546875 0.59375 -1.3125q0 -0.84375 -0.59375 -1.34375q-0.578125 -0.515625 -1.640625 -0.515625q-1.5625 0 -2.609375 1.015625l-1.84375 -0.484375l0 -7.140625l8.53125 0l0 2.328125l-5.890625 0l0 3.03125q0.453125 -0.4375 1.171875 -0.734375q0.71875 -0.296875 1.578125 -0.296875q1.671875 0 2.828125 1.125q1.15625 1.109375 1.15625 2.90625q0 1.96875 -1.34375 3.140625q-1.34375 1.15625 -3.640625 1.15625zm10.546127 -0.015625q-2.25 0 -3.65625 -1.28125l1.171875 -2.03125q0.5 0.484375 1.0625 0.734375q0.578125 0.234375 1.421875 0.234375q1.375 0 2.234375 -0.984375q0.875 -0.984375 0.875 -2.53125l0 -0.28125q-0.5 0.71875 -1.375 1.171875q-0.875 0.4375 -1.828125 0.4375q-1.859375 0 -3.0625 -1.109375q-1.1875 -1.109375 -1.1875 -2.9375q0 -1.84375 1.34375 -3.0625q1.359375 -1.21875 3.421875 -1.21875q2.53125 0 3.9375 1.71875q1.421875 1.71875 1.421875 4.71875q0 2.96875 -1.5625 4.703125q-1.5625 1.71875 -4.21875 1.71875zm0.65625 -6.8125q1.484375 0 2.4375 -1.15625q-0.09375 -1.15625 -0.78125 -1.84375q-0.671875 -0.6875 -1.75 -0.6875q-0.9375 0 -1.578125 0.53125q-0.625 0.53125 -0.625 1.296875q0 0.859375 0.625 1.359375q0.640625 0.5 1.671875 0.5zm7.779129 6.8125q-0.625 0 -1.078125 -0.4375q-0.4375 -0.453125 -0.4375 -1.078125q0 -0.609375 0.4375 -1.046875q0.453125 -0.453125 1.078125 -0.453125q0.609375 0 1.0625 0.453125q0.453125 0.4375 0.453125 1.046875q0 0.625 -0.453125 1.078125q-0.453125 0.4375 -1.0625 0.4375zm7.9933777 0.015625q-2.515625 0 -3.9375 -1.6875q-1.421875 -1.703125 -1.421875 -4.71875q0 -2.890625 1.546875 -4.65625q1.546875 -1.78125 4.25 -1.78125q2.1875 0 3.671875 1.28125l-1.1875 2.03125q-0.515625 -0.484375 -1.078125 -0.71875q-0.5625 -0.25 -1.40625 -0.25q-1.359375 0 -2.234375 1.015625q-0.875 1.015625 -0.875 2.515625l0.015625 0.25q0.515625 -0.71875 1.375 -1.15625q0.875 -0.4375 1.8125 -0.4375q1.84375 0 3.03125 1.125q1.203125 1.109375 1.203125 2.921875q0 1.859375 -1.34375 3.0625q-1.328125 1.203125 -3.421875 1.203125zm-0.140625 -2.34375q0.984375 0 1.59375 -0.546875q0.625 -0.5625 0.625 -1.28125q0 -0.859375 -0.640625 -1.359375q-0.625 -0.515625 -1.671875 -0.515625q-1.5 0 -2.421875 1.1875q0.09375 1.109375 0.734375 1.8125q0.65625 0.703125 1.78125 0.703125zm9.264877 2.125l0 -9.03125l-2.0625 2.109375l-1.515625 -1.578125l3.921875 -3.9375l2.3125 0l0 12.4375l-2.65625 0zm9.886475 0.21875q-2.515625 0 -3.9375 -1.6875q-1.421875 -1.703125 -1.421875 -4.71875q0 -2.890625 1.546875 -4.65625q1.546875 -1.78125 4.25 -1.78125q2.1875 0 3.671875 1.28125l-1.1875 2.03125q-0.515625 -0.484375 -1.078125 -0.71875q-0.5625 -0.25 -1.40625 -0.25q-1.359375 0 -2.234375 1.015625q-0.875 1.015625 -0.875 2.515625l0.015625 0.25q0.515625 -0.71875 1.375 -1.15625q0.875 -0.4375 1.8125 -0.4375q1.84375 0 3.03125 1.125q1.203125 1.109375 1.203125 2.921875q0 1.859375 -1.34375 3.0625q-1.328125 1.203125 -3.421875 1.203125zm-0.140625 -2.34375q0.984375 0 1.59375 -0.546875q0.625 -0.5625 0.625 -1.28125q0 -0.859375 -0.640625 -1.359375q-0.625 -0.515625 -1.671875 -0.515625q-1.5 0 -2.421875 1.1875q0.09375 1.109375 0.734375 1.8125q0.65625 0.703125 1.78125 0.703125zm13.900253 -4.3125q-1.40625 0 -2.28125 -0.859375q-0.875 -0.859375 -0.875 -2.203125q0 -1.375 0.875 -2.25q0.875 -0.875 2.28125 -0.875q1.375 0 2.265625 0.875q0.90625 0.875 0.90625 2.25q0 1.34375 -0.890625 2.203125q-0.890625 0.859375 -2.28125 0.859375zm-1.21875 6.4375l7.953125 -12.4375l1.421875 0l-7.96875 12.4375l-1.40625 0zm8.0625 0.21875q-1.4375 0 -2.296875 -0.875q-0.859375 -0.890625 -0.859375 -2.203125q0 -1.375 0.875 -2.25q0.875 -0.875 2.28125 -0.875q1.375 0 2.265625 0.875q0.90625 0.875 0.90625 2.25q0 1.34375 -0.875 2.21875q-0.875 0.859375 -2.296875 0.859375zm-6.84375 -8.109375q0.65625 0 1.0625 -0.4375q0.40625 -0.4375 0.40625 -1.171875q0 -0.78125 -0.40625 -1.21875q-0.40625 -0.4375 -1.0625 -0.4375q-0.640625 0 -1.0625 0.4375q-0.40625 0.4375 -0.40625 1.21875q0 0.734375 0.40625 1.171875q0.421875 0.4375 1.0625 0.4375zm6.84375 6.65625q0.65625 0 1.078125 -0.421875q0.421875 -0.4375 0.421875 -1.203125q0 -0.78125 -0.421875 -1.21875q-0.421875 -0.4375 -1.078125 -0.4375q-0.65625 0 -1.0625 0.4375q-0.40625 0.4375 -0.40625 1.21875q0 0.765625 0.40625 1.203125q0.40625 0.421875 1.0625 0.421875z" fill-rule="nonzero"/><path fill="#3d4351" d="m17.265625 51.343884l-2.4375 -4.421875l-1.953125 0l0 4.421875l-2.640625 0l0 -12.4375l5.8125 0q1.90625 0 3.046875 1.125q1.140625 1.125 1.140625 2.875q0 1.453125 -0.78125 2.453125q-0.765625 0.984375 -1.953125 1.25l2.8125 4.734375l-3.046875 0zm-1.609375 -6.75q0.8125 0 1.34375 -0.453125q0.53125 -0.453125 0.53125 -1.234375q0 -0.78125 -0.53125 -1.21875q-0.53125 -0.453125 -1.34375 -0.453125l-2.78125 0l0 3.359375l2.78125 0zm12.589722 6.96875q-2.890625 0 -4.75 -1.828125q-1.859375 -1.84375 -1.859375 -4.609375q0 -1.828125 0.859375 -3.3125q0.875 -1.5 2.390625 -2.3125q1.53125 -0.8125 3.359375 -0.8125q3.4375 0 5.21875 3.046875l-2.28125 1.125q-0.390625 -0.765625 -1.171875 -1.28125q-0.78125 -0.53125 -1.765625 -0.53125q-1.6875 0 -2.796875 1.171875q-1.09375 1.15625 -1.09375 2.90625q0 1.8125 1.109375 2.953125q1.125 1.140625 2.78125 1.140625q0.984375 0 1.765625 -0.515625q0.78125 -0.515625 1.171875 -1.296875l2.28125 1.109375q-1.78125 3.046875 -5.21875 3.046875zm15.379349 -0.21875l-5.9375 -8.109375l0 8.109375l-2.640625 0l0 -12.4375l2.71875 0l5.765625 7.8125l0 -7.8125l2.65625 0l0 12.4375l-2.5625 0z" fill-rule="nonzero"/><path fill="#3d4351" d="m97.97548 51.343884l0 -9.03125l-2.0625 2.109375l-1.515625 -1.578125l3.921875 -3.9375l2.3125 0l0 12.4375l-2.65625 0zm9.886475 0.21875q-2.515625 0 -3.9375 -1.6875q-1.421875 -1.703125 -1.421875 -4.71875q0 -2.890625 1.546875 -4.65625q1.546875 -1.78125 4.25 -1.78125q2.1875 0 3.671875 1.28125l-1.1875 2.03125q-0.515625 -0.484375 -1.078125 -0.71875q-0.5625 -0.25 -1.40625 -0.25q-1.359375 0 -2.234375 1.015625q-0.875 1.015625 -0.875 2.515625l0.015625 0.25q0.515625 -0.71875 1.375 -1.15625q0.875 -0.4375 1.8125 -0.4375q1.84375 0 3.03125 1.125q1.203125 1.109375 1.203125 2.921875q0 1.859375 -1.34375 3.0625q-1.328125 1.203125 -3.421875 1.203125zm-0.140625 -2.34375q0.984375 0 1.59375 -0.546875q0.625 -0.5625 0.625 -1.28125q0 -0.859375 -0.640625 -1.359375q-0.625 -0.515625 -1.671875 -0.515625q-1.5 0 -2.421875 1.1875q0.09375 1.109375 0.734375 1.8125q0.65625 0.703125 1.78125 0.703125zm7.8742523 2.328125q-0.625 0 -1.078125 -0.4375q-0.4375 -0.453125 -0.4375 -1.078125q0 -0.609375 0.4375 -1.046875q0.453125 -0.453125 1.078125 -0.453125q0.609375 0 1.0625 0.453125q0.453125 0.4375 0.453125 1.046875q0 0.625 -0.453125 1.078125q-0.453125 0.4375 -1.0625 0.4375zm3.272705 -0.203125l4.46875 -10.109375l-6.265625 0l0 -2.328125l9.34375 0l0 1.84375l-4.625 10.59375l-2.921875 0zm11.698914 0l0 -9.03125l-2.0625 2.109375l-1.515625 -1.578125l3.921875 -3.9375l2.3125 0l0 12.4375l-2.65625 0zm9.667725 0.21875q-2.390625 0 -3.765625 -1.828125q-1.375 -1.828125 -1.375 -4.609375q0 -1.796875 0.625 -3.28125q0.625 -1.484375 1.78125 -2.296875q1.15625 -0.828125 2.734375 -0.828125q2.359375 0 3.75 1.796875q1.40625 1.796875 1.40625 4.609375q0 2.796875 -1.390625 4.625q-1.390625 1.8125 -3.765625 1.8125zm0 -2.34375q1.15625 0 1.796875 -1.046875q0.65625 -1.0625 0.65625 -3.046875q0 -2.015625 -0.65625 -3.03125q-0.65625 -1.03125 -1.796875 -1.03125q-1.15625 0 -1.8125 1.03125q-0.640625 1.015625 -0.640625 3.03125q0 2.015625 0.640625 3.0625q0.640625 1.03125 1.8125 1.03125zm14.202255 -4.3125q-1.40625 0 -2.28125 -0.859375q-0.875 -0.859375 -0.875 -2.203125q0 -1.375 0.875 -2.25q0.875 -0.875 2.28125 -0.875q1.375 0 2.265625 0.875q0.90625 0.875 0.90625 2.25q0 1.34375 -0.890625 2.203125q-0.890625 0.859375 -2.28125 0.859375zm-1.21875 6.4375l7.953125 -12.4375l1.421875 0l-7.96875 12.4375l-1.40625 0zm8.0625 0.21875q-1.4375 0 -2.296875 -0.875q-0.859375 -0.890625 -0.859375 -2.203125q0 -1.375 0.875 -2.25q0.875 -0.875 2.28125 -0.875q1.375 0 2.265625 0.875q0.90625 0.875 0.90625 2.25q0 1.34375 -0.875 2.21875q-0.875 0.859375 -2.296875 0.859375zm-6.84375 -8.109375q0.65625 0 1.0625 -0.4375q0.40625 -0.4375 0.40625 -1.171875q0 -0.78125 -0.40625 -1.21875q-0.40625 -0.4375 -1.0625 -0.4375q-0.640625 0 -1.0625 0.4375q-0.40625 0.4375 -0.40625 1.21875q0 0.734375 0.40625 1.171875q0.421875 0.4375 1.0625 0.4375zm6.84375 6.65625q0.65625 0 1.078125 -0.421875q0.421875 -0.4375 0.421875 -1.203125q0 -0.78125 -0.421875 -1.21875q-0.421875 -0.4375 -1.078125 -0.4375q-0.65625 0 -1.0625 0.4375q-0.40625 0.4375 -0.40625 1.21875q0 0.765625 0.40625 1.203125q0.40625 0.421875 1.0625 0.421875z" fill-rule="nonzero"/><path fill="#3d4351" d="m19.75 84.76908l-2.1875 -8.546875l-2.15625 8.546875l-2.828125 0l-3.5625 -12.4375l2.96875 0l2.1875 8.984375l2.359375 -8.984375l2.078125 0l2.34375 8.984375l2.171875 -8.984375l2.984375 0l-3.546875 12.4375l-2.8125 0zm7.6108093 0l0 -12.4375l2.640625 0l0 12.4375l-2.640625 0zm13.689941 0l-5.9375 -8.109375l0 8.109375l-2.640625 0l0 -12.4375l2.71875 0l5.765625 7.8125l0 -7.8125l2.65625 0l0 12.4375l-2.5625 0zm11.037903 0.25q-2.828125 0 -4.71875 -1.8125q-1.890625 -1.8125 -1.890625 -4.65625q0 -2.828125 1.875 -4.625q1.875 -1.8125 4.734375 -1.8125q3.40625 0 5.15625 2.78125l-2.203125 1.203125q-0.421875 -0.65625 -1.1875 -1.140625q-0.75 -0.484375 -1.765625 -0.484375q-1.6875 0 -2.796875 1.171875q-1.09375 1.15625 -1.09375 2.90625q0 1.8125 1.109375 2.953125q1.125 1.140625 2.78125 1.140625q0.84375 0 1.5625 -0.296875q0.71875 -0.296875 1.09375 -0.65625l0 -1.5l-3.28125 0l0 -2.3125l5.9375 0l0 4.78125q-2.109375 2.359375 -5.3125 2.359375zm11.83876 -0.03125q-3.328125 0 -5.265625 -1.96875l1.4375 -2.015625q0.65625 0.6875 1.65625 1.1875q1.015625 0.484375 2.296875 0.484375q1.109375 0 1.640625 -0.40625q0.53125 -0.421875 0.53125 -0.96875q0 -0.5625 -0.625 -0.875q-0.609375 -0.328125 -2.96875 -0.875q-3.578125 -0.859375 -3.578125 -3.625q0 -1.609375 1.296875 -2.6875q1.296875 -1.09375 3.421875 -1.09375q2.96875 0 4.859375 1.734375l-1.484375 1.9375q-1.46875 -1.359375 -3.609375 -1.359375q-0.859375 0 -1.328125 0.34375q-0.453125 0.34375 -0.453125 0.90625q0 0.484375 0.53125 0.75q0.53125 0.265625 1.34375 0.453125l1.71875 0.4375q3.5625 0.90625 3.5625 3.65625q0 1.84375 -1.328125 2.921875q-1.328125 1.0625 -3.65625 1.0625z" fill-rule="nonzero"/><path fill="#3d4351" d="m100.19423 84.98783q-2.515625 0 -3.9375 -1.6875q-1.421875 -1.703125 -1.421875 -4.71875q0 -2.890625 1.546875 -4.65625q1.546875 -1.78125 4.25 -1.78125q2.1875 0 3.671875 1.28125l-1.1875 2.03125q-0.515625 -0.484375 -1.078125 -0.71875q-0.5625 -0.25 -1.40625 -0.25q-1.359375 0 -2.234375 1.015625q-0.875 1.015625 -0.875 2.515625l0.015625 0.25q0.515625 -0.71875 1.375 -1.15625q0.875 -0.4375 1.8125 -0.4375q1.84375 0 3.03125 1.125q1.203125 1.109375 1.203125 2.921875q0 1.859375 -1.34375 3.0625q-1.328125 1.203125 -3.421875 1.203125zm-0.140625 -2.34375q0.984375 0 1.59375 -0.546875q0.625 -0.5625 0.625 -1.28125q0 -0.859375 -0.640625 -1.359375q-0.625 -0.515625 -1.671875 -0.515625q-1.5 0 -2.421875 1.1875q0.09375 1.109375 0.734375 1.8125q0.65625 0.703125 1.78125 0.703125zm7.8742523 2.328125q-0.625 0 -1.078125 -0.4375q-0.4375 -0.453125 -0.4375 -1.078125q0 -0.609375 0.4375 -1.046875q0.453125 -0.453125 1.078125 -0.453125q0.609375 0 1.0625 0.453125q0.453125 0.4375 0.453125 1.046875q0 0.625 -0.453125 1.078125q-0.453125 0.4375 -1.0625 0.4375zm4.318634 -0.203125l0 -9.03125l-2.0625 2.109375l-1.515625 -1.578125l3.921875 -3.9375l2.3125 0l0 12.4375l-2.65625 0zm10.30835 0l0 -2.578125l-5.953125 0l0 -2.09375l4.9375 -7.765625l3.65625 0l0 7.53125l1.609375 0l0 2.328125l-1.609375 0l0 2.578125l-2.640625 0zm0 -10.09375l-3.359375 5.1875l3.359375 0l0 -5.1875zm8.497162 10.09375l0 -9.03125l-2.0625 2.109375l-1.515625 -1.578125l3.921875 -3.9375l2.3125 0l0 12.4375l-2.65625 0zm12.303101 -6.4375q-1.40625 0 -2.28125 -0.859375q-0.875 -0.859375 -0.875 -2.203125q0 -1.375 0.875 -2.25q0.875 -0.875 2.28125 -0.875q1.375 0 2.265625 0.875q0.90625 0.875 0.90625 2.25q0 1.34375 -0.890625 2.203125q-0.890625 0.859375 -2.28125 0.859375zm-1.21875 6.4375l7.953125 -12.4375l1.421875 0l-7.96875 12.4375l-1.40625 0zm8.0625 0.21875q-1.4375 0 -2.296875 -0.875q-0.859375 -0.890625 -0.859375 -2.203125q0 -1.375 0.875 -2.25q0.875 -0.875 2.28125 -0.875q1.375 0 2.265625 0.875q0.90625 0.875 0.90625 2.25q0 1.34375 -0.875 2.21875q-0.875 0.859375 -2.296875 0.859375zm-6.84375 -8.109375q0.65625 0 1.0625 -0.4375q0.40625 -0.4375 0.40625 -1.171875q0 -0.78125 -0.40625 -1.21875q-0.40625 -0.4375 -1.0625 -0.4375q-0.640625 0 -1.0625 0.4375q-0.40625 0.4375 -0.40625 1.21875q0 0.734375 0.40625 1.171875q0.421875 0.4375 1.0625 0.4375zm6.84375 6.65625q0.65625 0 1.078125 -0.421875q0.421875 -0.4375 0.421875 -1.203125q0 -0.78125 -0.421875 -1.21875q-0.421875 -0.4375 -1.078125 -0.4375q-0.65625 0 -1.0625 0.4375q-0.40625 0.4375 -0.40625 1.21875q0 0.765625 0.40625 1.203125q0.40625 0.421875 1.0625 0.421875z" fill-rule="nonzero"/><path fill="#3d4351" d="m10.234375 118.194275l0 -12.4375l4.90625 0q2.9375 0 4.765625 1.71875q1.84375 1.703125 1.84375 4.5q0 2.78125 -1.84375 4.5q-1.828125 1.71875 -4.765625 1.71875l-4.90625 0zm4.90625 -2.328125q1.734375 0 2.8125 -1.09375q1.078125 -1.09375 1.078125 -2.796875q0 -1.765625 -1.03125 -2.828125q-1.03125 -1.0625 -2.859375 -1.0625l-2.265625 0l0 7.78125l2.265625 0zm17.067062 2.328125l-5.9375 -8.109375l0 8.109375l-2.640625 0l0 -12.4375l2.71875 0l5.765625 7.8125l0 -7.8125l2.65625 0l0 12.4375l-2.5625 0zm7.897278 0l0 -10.109375l-3.640625 0l0 -2.328125l9.921875 0l0 2.328125l-3.625 0l0 10.109375l-2.65625 0z" fill-rule="nonzero"/><path fill="#3d4351" d="m99.897354 118.413025q-3.09375 0 -4.78125 -1.859375l1.46875 -1.84375q1.328125 1.359375 3.296875 1.359375q1.125 0 1.71875 -0.53125q0.59375 -0.546875 0.59375 -1.3125q0 -0.84375 -0.59375 -1.34375q-0.578125 -0.515625 -1.640625 -0.515625q-1.5625 0 -2.609375 1.015625l-1.84375 -0.484375l0 -7.140625l8.53125 0l0 2.328125l-5.890625 0l0 3.03125q0.453125 -0.4375 1.171875 -0.734375q0.71875 -0.296875 1.578125 -0.296875q1.671875 0 2.828125 1.125q1.15625 1.109375 1.15625 2.90625q0 1.96875 -1.34375 3.140625q-1.34375 1.15625 -3.640625 1.15625zm8.030502 -0.015625q-0.625 0 -1.078125 -0.4375q-0.4375 -0.453125 -0.4375 -1.078125q0 -0.609375 0.4375 -1.046875q0.453125 -0.453125 1.078125 -0.453125q0.609375 0 1.0625 0.453125q0.453125 0.4375 0.453125 1.046875q0 0.625 -0.453125 1.078125q-0.453125 0.4375 -1.0625 0.4375zm8.041626 0.015625q-2.1875 0 -3.59375 -0.921875q-1.40625 -0.9375 -1.40625 -2.53125q0 -1.0625 0.71875 -1.890625q0.71875 -0.84375 1.953125 -1.296875q-2.46875 -0.875 -2.46875 -2.921875q0 -1.546875 1.34375 -2.40625q1.359375 -0.875 3.453125 -0.875q2.109375 0 3.453125 0.890625q1.34375 0.875 1.34375 2.390625q0 2.03125 -2.484375 2.921875q1.265625 0.46875 1.96875 1.328125q0.71875 0.84375 0.71875 1.859375q0 1.59375 -1.421875 2.53125q-1.40625 0.921875 -3.578125 0.921875zm0 -7.6875q0.890625 -0.109375 1.484375 -0.515625q0.609375 -0.40625 0.609375 -0.953125q0 -0.671875 -0.59375 -1.046875q-0.59375 -0.375 -1.5 -0.375q-0.9375 0 -1.53125 0.375q-0.578125 0.375 -0.578125 1.046875q0 0.5 0.578125 0.921875q0.59375 0.421875 1.53125 0.546875zm0 5.421875q0.984375 0 1.640625 -0.4375q0.671875 -0.4375 0.671875 -1.078125q0 -0.59375 -0.703125 -1.0625q-0.6875 -0.46875 -1.609375 -0.59375q-0.90625 0.109375 -1.609375 0.578125q-0.703125 0.46875 -0.703125 1.078125q0 0.6875 0.65625 1.109375q0.671875 0.40625 1.65625 0.40625zm10.555695 2.25q-2.25 0 -3.65625 -1.28125l1.171875 -2.03125q0.5 0.484375 1.0625 0.734375q0.578125 0.234375 1.421875 0.234375q1.375 0 2.234375 -0.984375q0.875 -0.984375 0.875 -2.53125l0 -0.28125q-0.5 0.71875 -1.375 1.171875q-0.875 0.4375 -1.828125 0.4375q-1.859375 0 -3.0625 -1.109375q-1.1875 -1.109375 -1.1875 -2.9375q0 -1.84375 1.34375 -3.0625q1.359375 -1.21875 3.421875 -1.21875q2.53125 0 3.9375 1.71875q1.421875 1.71875 1.421875 4.71875q0 2.96875 -1.5625 4.703125q-1.5625 1.71875 -4.21875 1.71875zm0.65625 -6.8125q1.484375 0 2.4375 -1.15625q-0.09375 -1.15625 -0.78125 -1.84375q-0.671875 -0.6875 -1.75 -0.6875q-0.9375 0 -1.578125 0.53125q-0.625 0.53125 -0.625 1.296875q0 0.859375 0.625 1.359375q0.640625 0.5 1.671875 0.5zm11.483627 6.828125q-3.09375 0 -4.78125 -1.859375l1.46875 -1.84375q1.328125 1.359375 3.296875 1.359375q1.125 0 1.71875 -0.53125q0.59375 -0.546875 0.59375 -1.3125q0 -0.84375 -0.59375 -1.34375q-0.578125 -0.515625 -1.640625 -0.515625q-1.5625 0 -2.609375 1.015625l-1.84375 -0.484375l0 -7.140625l8.53125 0l0 2.328125l-5.890625 0l0 3.03125q0.453125 -0.4375 1.171875 -0.734375q0.71875 -0.296875 1.578125 -0.296875q1.671875 0 2.828125 1.125q1.15625 1.109375 1.15625 2.90625q0 1.96875 -1.34375 3.140625q-1.34375 1.15625 -3.640625 1.15625zm14.056503 -6.65625q-1.40625 0 -2.28125 -0.859375q-0.875 -0.859375 -0.875 -2.203125q0 -1.375 0.875 -2.25q0.875 -0.875 2.28125 -0.875q1.375 0 2.265625 0.875q0.90625 0.875 0.90625 2.25q0 1.34375 -0.890625 2.203125q-0.890625 0.859375 -2.28125 0.859375zm-1.21875 6.4375l7.953125 -12.4375l1.421875 0l-7.96875 12.4375l-1.40625 0zm8.0625 0.21875q-1.4375 0 -2.296875 -0.875q-0.859375 -0.890625 -0.859375 -2.203125q0 -1.375 0.875 -2.25q0.875 -0.875 2.28125 -0.875q1.375 0 2.265625 0.875q0.90625 0.875 0.90625 2.25q0 1.34375 -0.875 2.21875q-0.875 0.859375 -2.296875 0.859375zm-6.84375 -8.109375q0.65625 0 1.0625 -0.4375q0.40625 -0.4375 0.40625 -1.171875q0 -0.78125 -0.40625 -1.21875q-0.40625 -0.4375 -1.0625 -0.4375q-0.640625 0 -1.0625 0.4375q-0.40625 0.4375 -0.40625 1.21875q0 0.734375 0.40625 1.171875q0.421875 0.4375 1.0625 0.4375zm6.84375 6.65625q0.65625 0 1.078125 -0.421875q0.421875 -0.4375 0.421875 -1.203125q0 -0.78125 -0.421875 -1.21875q-0.421875 -0.4375 -1.078125 -0.4375q-0.65625 0 -1.0625 0.4375q-0.40625 0.4375 -0.40625 1.21875q0 0.765625 0.40625 1.203125q0.40625 0.421875 1.0625 0.421875z" fill-rule="nonzero"/><path fill="#3d4351" d="m10.234375 151.61948l0 -12.4375l2.640625 0l0 10.109375l5.265625 0l0 2.328125l-7.90625 0zm14.918594 0.21875q-2.640625 0 -4.125 -1.359375q-1.484375 -1.359375 -1.484375 -3.828125l0 -7.46875l2.6875 0l0 7.375q0 1.3125 0.734375 2.125q0.734375 0.8125 2.1875 0.8125q1.453125 0 2.171875 -0.8125q0.734375 -0.8125 0.734375 -2.125l0 -7.375l2.71875 0l0 7.453125q0 2.46875 -1.46875 3.84375q-1.453125 1.359375 -4.15625 1.359375zm16.643784 -0.21875l-5.9375 -8.109375l0 8.109375l-2.640625 0l0 -12.4375l2.71875 0l5.765625 7.8125l0 -7.8125l2.65625 0l0 12.4375l-2.5625 0z" fill-rule="nonzero"/><path fill="#3d4351" d="m99.47548 151.83823q-1.734375 0 -2.984375 -0.578125q-1.234375 -0.578125 -1.921875 -1.40625l1.375 -1.78125q0.65625 0.671875 1.578125 1.046875q0.9375 0.375 1.859375 0.375q1.140625 0 1.734375 -0.4375q0.609375 -0.4375 0.609375 -1.15625q0 -0.734375 -0.59375 -1.078125q-0.59375 -0.359375 -1.90625 -0.359375l-0.421875 0l-1.125 0.046875l0 -2.390625l0.6875 0.015625l0.859375 0q2.296875 0 2.296875 -1.328125q0 -0.734375 -0.671875 -1.09375q-0.65625 -0.375 -1.640625 -0.375q-1.8125 0 -3.15625 1.28125l-1.3125 -1.65625q1.75 -1.96875 4.75 -1.96875q2.203125 0 3.453125 0.921875q1.25 0.90625 1.25 2.453125q0 1.046875 -0.78125 1.84375q-0.765625 0.78125 -1.9375 0.984375q1.28125 0.15625 2.09375 1.0q0.8125 0.84375 0.8125 1.984375q0 1.640625 -1.359375 2.65625q-1.359375 1.0 -3.546875 1.0zm8.060593 -0.015625q-0.625 0 -1.078125 -0.4375q-0.4375 -0.453125 -0.4375 -1.078125q0 -0.609375 0.4375 -1.046875q0.453125 -0.453125 1.078125 -0.453125q0.609375 0 1.0625 0.453125q0.453125 0.4375 0.453125 1.046875q0 0.625 -0.453125 1.078125q-0.453125 0.4375 -1.0625 0.4375zm8.807251 -0.203125l0 -2.578125l-5.953125 0l0 -2.09375l4.9375 -7.765625l3.65625 0l0 7.53125l1.609375 0l0 2.328125l-1.609375 0l0 2.578125l-2.640625 0zm0 -10.09375l-3.359375 5.1875l3.359375 0l0 -5.1875zm9.622162 10.296875q-2.25 0 -3.65625 -1.28125l1.171875 -2.03125q0.5 0.484375 1.0625 0.734375q0.578125 0.234375 1.421875 0.234375q1.375 0 2.234375 -0.984375q0.875 -0.984375 0.875 -2.53125l0 -0.28125q-0.5 0.71875 -1.375 1.171875q-0.875 0.4375 -1.828125 0.4375q-1.859375 0 -3.0625 -1.109375q-1.1875 -1.109375 -1.1875 -2.9375q0 -1.84375 1.34375 -3.0625q1.359375 -1.21875 3.421875 -1.21875q2.53125 0 3.9375 1.71875q1.421875 1.71875 1.421875 4.71875q0 2.96875 -1.5625 4.703125q-1.5625 1.71875 -4.21875 1.71875zm0.65625 -6.8125q1.484375 0 2.4375 -1.15625q-0.09375 -1.15625 -0.78125 -1.84375q-0.671875 -0.6875 -1.75 -0.6875q-0.9375 0 -1.578125 0.53125q-0.625 0.53125 -0.625 1.296875q0 0.859375 0.625 1.359375q0.640625 0.5 1.671875 0.5zm12.202377 6.609375l0 -2.578125l-5.953125 0l0 -2.09375l4.9375 -7.765625l3.65625 0l0 7.53125l1.609375 0l0 2.328125l-1.609375 0l0 2.578125l-2.640625 0zm0 -10.09375l-3.359375 5.1875l3.359375 0l0 -5.1875zm13.132538 3.65625q-1.40625 0 -2.28125 -0.859375q-0.875 -0.859375 -0.875 -2.203125q0 -1.375 0.875 -2.25q0.875 -0.875 2.28125 -0.875q1.375 0 2.265625 0.875q0.90625 0.875 0.90625 2.25q0 1.34375 -0.890625 2.203125q-0.890625 0.859375 -2.28125 0.859375zm-1.21875 6.4375l7.953125 -12.4375l1.421875 0l-7.96875 12.4375l-1.40625 0zm8.0625 0.21875q-1.4375 0 -2.296875 -0.875q-0.859375 -0.890625 -0.859375 -2.203125q0 -1.375 0.875 -2.25q0.875 -0.875 2.28125 -0.875q1.375 0 2.265625 0.875q0.90625 0.875 0.90625 2.25q0 1.34375 -0.875 2.21875q-0.875 0.859375 -2.296875 0.859375zm-6.84375 -8.109375q0.65625 0 1.0625 -0.4375q0.40625 -0.4375 0.40625 -1.171875q0 -0.78125 -0.40625 -1.21875q-0.40625 -0.4375 -1.0625 -0.4375q-0.640625 0 -1.0625 0.4375q-0.40625 0.4375 -0.40625 1.21875q0 0.734375 0.40625 1.171875q0.421875 0.4375 1.0625 0.4375zm6.84375 6.65625q0.65625 0 1.078125 -0.421875q0.421875 -0.4375 0.421875 -1.203125q0 -0.78125 -0.421875 -1.21875q-0.421875 -0.4375 -1.078125 -0.4375q-0.65625 0 -1.0625 0.4375q-0.40625 0.4375 -0.40625 1.21875q0 0.765625 0.40625 1.203125q0.40625 0.421875 1.0625 0.421875z" fill-rule="nonzero"/><path fill="#3d4351" d="m20.942627 185.24779q-0.625 0 -1.078125 -0.4375q-0.4375 -0.453125 -0.4375 -1.078125q0 -0.609375 0.4375 -1.046875q0.453125 -0.453125 1.078125 -0.453125q0.609375 0 1.0625 0.453125q0.453125 0.4375 0.453125 1.046875q0 0.625 -0.453125 1.078125q-0.453125 0.4375 -1.0625 0.4375zm4.776001 0q-0.625 0 -1.078125 -0.4375q-0.4375 -0.453125 -0.4375 -1.078125q0 -0.609375 0.4375 -1.046875q0.453125 -0.453125 1.078125 -0.453125q0.609375 0 1.0625 0.453125q0.453125 0.4375 0.453125 1.046875q0 0.625 -0.453125 1.078125q-0.453125 0.4375 -1.0625 0.4375zm4.776001 0q-0.625 0 -1.078125 -0.4375q-0.4375 -0.453125 -0.4375 -1.078125q0 -0.609375 0.4375 -1.046875q0.453125 -0.453125 1.078125 -0.453125q0.609375 0 1.0625 0.453125q0.453125 0.4375 0.453125 1.046875q0 0.625 -0.453125 1.078125q-0.453125 0.4375 -1.0625 0.4375z" fill-rule="nonzero"/><path fill="#3d4351" d="m106.136856 185.24779q-0.625 0 -1.078125 -0.4375q-0.4375 -0.453125 -0.4375 -1.078125q0 -0.609375 0.4375 -1.046875q0.453125 -0.453125 1.078125 -0.453125q0.609375 0 1.0625 0.453125q0.453125 0.4375 0.453125 1.046875q0 0.625 -0.453125 1.078125q-0.453125 0.4375 -1.0625 0.4375zm4.776001 0q-0.625 0 -1.078125 -0.4375q-0.4375 -0.453125 -0.4375 -1.078125q0 -0.609375 0.4375 -1.046875q0.453125 -0.453125 1.078125 -0.453125q0.609375 0 1.0625 0.453125q0.453125 0.4375 0.453125 1.046875q0 0.625 -0.453125 1.078125q-0.453125 0.4375 -1.0625 0.4375zm4.776001 0q-0.625 0 -1.078125 -0.4375q-0.4375 -0.453125 -0.4375 -1.078125q0 -0.609375 0.4375 -1.046875q0.453125 -0.453125 1.078125 -0.453125q0.609375 0 1.0625 0.453125q0.453125 0.4375 0.453125 1.046875q0 0.625 -0.453125 1.078125q-0.453125 0.4375 -1.0625 0.4375z" fill-rule="nonzero"/><path fill="#3d4351" d="m14.65625 218.68861q-3.328125 0 -5.265625 -1.96875l1.4375 -2.015625q0.65625 0.6875 1.65625 1.1875q1.015625 0.484375 2.296875 0.484375q1.109375 0 1.640625 -0.40625q0.53125 -0.421875 0.53125 -0.96875q0 -0.5625 -0.625 -0.875q-0.609375 -0.328125 -2.96875 -0.875q-3.578125 -0.859375 -3.578125 -3.625q0 -1.609375 1.296875 -2.6875q1.296875 -1.09375 3.421875 -1.09375q2.96875 0 4.859375 1.734375l-1.484375 1.9375q-1.46875 -1.359375 -3.609375 -1.359375q-0.859375 0 -1.328125 0.34375q-0.453125 0.34375 -0.453125 0.90625q0 0.484375 0.53125 0.75q0.53125 0.265625 1.34375 0.453125l1.71875 0.4375q3.5625 0.90625 3.5625 3.65625q0 1.84375 -1.328125 2.921875q-1.328125 1.0625 -3.65625 1.0625zm15.163345 -0.21875l-0.765625 -2.109375l-5.328125 0l-0.796875 2.109375l-3.015625 0l4.8125 -12.4375l3.328125 0l4.78125 12.4375l-3.015625 0zm-3.4375 -9.796875l-1.9375 5.359375l3.890625 0l-1.953125 -5.359375zm7.6202545 9.796875l0 -12.4375l2.640625 0l0 10.109375l5.265625 0l0 2.328125l-7.90625 0zm10.765549 0l0 -10.109375l-3.640625 0l0 -2.328125l9.921875 0l0 2.328125l-3.625 0l0 10.109375l-2.65625 0z" fill-rule="nonzero"/><path fill="#3d4351" d="m94.75673 214.96986l0 -2.015625l4.46875 0l0 2.015625l-4.46875 0zm8.815628 3.5l0 -9.03125l-2.0625 2.109375l-1.515625 -1.578125l3.921875 -3.9375l2.3125 0l0 12.4375l-2.65625 0zm6.2770996 0.203125q-0.625 0 -1.078125 -0.4375q-0.4375 -0.453125 -0.4375 -1.078125q0 -0.609375 0.4375 -1.046875q0.453125 -0.453125 1.078125 -0.453125q0.609375 0 1.0625 0.453125q0.453125 0.4375 0.453125 1.046875q0 0.625 -0.453125 1.078125q-0.453125 0.4375 -1.0625 0.4375zm8.807251 -0.203125l0 -2.578125l-5.953125 0l0 -2.09375l4.9375 -7.765625l3.65625 0l0 7.53125l1.609375 0l0 2.328125l-1.609375 0l0 2.578125l-2.640625 0zm0 -10.09375l-3.359375 5.1875l3.359375 0l0 -5.1875zm8.497162 10.09375l0 -9.03125l-2.0625 2.109375l-1.515625 -1.578125l3.921875 -3.9375l2.3125 0l0 12.4375l-2.65625 0zm9.5896 0.21875q-3.09375 0 -4.78125 -1.859375l1.46875 -1.84375q1.328125 1.359375 3.296875 1.359375q1.125 0 1.71875 -0.53125q0.59375 -0.546875 0.59375 -1.3125q0 -0.84375 -0.59375 -1.34375q-0.578125 -0.515625 -1.640625 -0.515625q-1.5625 0 -2.609375 1.015625l-1.84375 -0.484375l0 -7.140625l8.53125 0l0 2.328125l-5.890625 0l0 3.03125q0.453125 -0.4375 1.171875 -0.734375q0.71875 -0.296875 1.578125 -0.296875q1.671875 0 2.828125 1.125q1.15625 1.109375 1.15625 2.90625q0 1.96875 -1.34375 3.140625q-1.34375 1.15625 -3.640625 1.15625zm14.056503 -6.65625q-1.40625 0 -2.28125 -0.859375q-0.875 -0.859375 -0.875 -2.203125q0 -1.375 0.875 -2.25q0.875 -0.875 2.28125 -0.875q1.375 0 2.265625 0.875q0.90625 0.875 0.90625 2.25q0 1.34375 -0.890625 2.203125q-0.890625 0.859375 -2.28125 0.859375zm-1.21875 6.4375l7.953125 -12.4375l1.421875 0l-7.96875 12.4375l-1.40625 0zm8.0625 0.21875q-1.4375 0 -2.296875 -0.875q-0.859375 -0.890625 -0.859375 -2.203125q0 -1.375 0.875 -2.25q0.875 -0.875 2.28125 -0.875q1.375 0 2.265625 0.875q0.90625 0.875 0.90625 2.25q0 1.34375 -0.875 2.21875q-0.875 0.859375 -2.296875 0.859375zm-6.84375 -8.109375q0.65625 0 1.0625 -0.4375q0.40625 -0.4375 0.40625 -1.171875q0 -0.78125 -0.40625 -1.21875q-0.40625 -0.4375 -1.0625 -0.4375q-0.640625 0 -1.0625 0.4375q-0.40625 0.4375 -0.40625 1.21875q0 0.734375 0.40625 1.171875q0.421875 0.4375 1.0625 0.4375zm6.84375 6.65625q0.65625 0 1.078125 -0.421875q0.421875 -0.4375 0.421875 -1.203125q0 -0.78125 -0.421875 -1.21875q-0.421875 -0.4375 -1.078125 -0.4375q-0.65625 0 -1.0625 0.4375q-0.40625 0.4375 -0.40625 1.21875q0 0.765625 0.40625 1.203125q0.40625 0.421875 1.0625 0.421875z" fill-rule="nonzero"/><path fill="#3d4351" d="m10.234375 251.89507l0 -12.4375l8.796875 0l0 2.328125l-6.15625 0l0 2.625l6.03125 0l0 2.328125l-6.03125 0l0 2.828125l6.15625 0l0 2.328125l-8.796875 0zm13.751602 0l0 -10.109375l-3.640625 0l0 -2.328125l9.921875 0l0 2.328125l-3.625 0l0 10.109375l-2.65625 0zm16.498566 0l0 -5.21875l-5.875 0l0 5.21875l-2.640625 0l0 -12.4375l2.640625 0l0 4.875l5.875 0l0 -4.875l2.671875 0l0 12.4375l-2.671875 0z" fill-rule="nonzero"/><path fill="#3d4351" d="m94.75673 248.39507l0 -2.015625l4.46875 0l0 2.015625l-4.46875 0zm8.815628 3.5l0 -9.03125l-2.0625 2.109375l-1.515625 -1.578125l3.921875 -3.9375l2.3125 0l0 12.4375l-2.65625 0zm6.2770996 0.203125q-0.625 0 -1.078125 -0.4375q-0.4375 -0.453125 -0.4375 -1.078125q0 -0.609375 0.4375 -1.046875q0.453125 -0.453125 1.078125 -0.453125q0.609375 0 1.0625 0.453125q0.453125 0.4375 0.453125 1.046875q0 0.625 -0.453125 1.078125q-0.453125 0.4375 -1.0625 0.4375zm7.9933777 0.015625q-2.515625 0 -3.9375 -1.6875q-1.421875 -1.703125 -1.421875 -4.71875q0 -2.890625 1.546875 -4.65625q1.546875 -1.78125 4.25 -1.78125q2.1875 0 3.671875 1.28125l-1.1875 2.03125q-0.515625 -0.484375 -1.078125 -0.71875q-0.5625 -0.25 -1.40625 -0.25q-1.359375 0 -2.234375 1.015625q-0.875 1.015625 -0.875 2.515625l0.015625 0.25q0.515625 -0.71875 1.375 -1.15625q0.875 -0.4375 1.8125 -0.4375q1.84375 0 3.03125 1.125q1.203125 1.109375 1.203125 2.921875q0 1.859375 -1.34375 3.0625q-1.328125 1.203125 -3.421875 1.203125zm-0.140625 -2.34375q0.984375 0 1.59375 -0.546875q0.625 -0.5625 0.625 -1.28125q0 -0.859375 -0.640625 -1.359375q-0.625 -0.515625 -1.671875 -0.515625q-1.5 0 -2.421875 1.1875q0.09375 1.109375 0.734375 1.8125q0.65625 0.703125 1.78125 0.703125zm11.186752 2.34375q-3.09375 0 -4.78125 -1.859375l1.46875 -1.84375q1.328125 1.359375 3.296875 1.359375q1.125 0 1.71875 -0.53125q0.59375 -0.546875 0.59375 -1.3125q0 -0.84375 -0.59375 -1.34375q-0.578125 -0.515625 -1.640625 -0.515625q-1.5625 0 -2.609375 1.015625l-1.84375 -0.484375l0 -7.140625l8.53125 0l0 2.328125l-5.890625 0l0 3.03125q0.453125 -0.4375 1.171875 -0.734375q0.71875 -0.296875 1.578125 -0.296875q1.671875 0 2.828125 1.125q1.15625 1.109375 1.15625 2.90625q0 1.96875 -1.34375 3.140625q-1.34375 1.15625 -3.640625 1.15625zm6.5148773 -0.21875l0 -2.078125q4.40625 -3.28125 5.5 -4.421875q1.09375 -1.15625 1.09375 -2.15625q0 -0.734375 -0.5625 -1.171875q-0.5625 -0.453125 -1.453125 -0.453125q-1.953125 0 -3.34375 1.4375l-1.515625 -1.75q0.921875 -1.0625 2.203125 -1.546875q1.28125 -0.484375 2.59375 -0.484375q2.109375 0 3.4375 1.109375q1.328125 1.09375 1.328125 2.859375q0 1.421875 -1.140625 2.890625q-1.125 1.46875 -3.84375 3.4375l5.078125 0l0 2.328125l-9.375 0zm18.735382 -6.4375q-1.40625 0 -2.28125 -0.859375q-0.875 -0.859375 -0.875 -2.203125q0 -1.375 0.875 -2.25q0.875 -0.875 2.28125 -0.875q1.375 0 2.265625 0.875q0.90625 0.875 0.90625 2.25q0 1.34375 -0.890625 2.203125q-0.890625 0.859375 -2.28125 0.859375zm-1.21875 6.4375l7.953125 -12.4375l1.421875 0l-7.96875 12.4375l-1.40625 0zm8.0625 0.21875q-1.4375 0 -2.296875 -0.875q-0.859375 -0.890625 -0.859375 -2.203125q0 -1.375 0.875 -2.25q0.875 -0.875 2.28125 -0.875q1.375 0 2.265625 0.875q0.90625 0.875 0.90625 2.25q0 1.34375 -0.875 2.21875q-0.875 0.859375 -2.296875 0.859375zm-6.84375 -8.109375q0.65625 0 1.0625 -0.4375q0.40625 -0.4375 0.40625 -1.171875q0 -0.78125 -0.40625 -1.21875q-0.40625 -0.4375 -1.0625 -0.4375q-0.640625 0 -1.0625 0.4375q-0.40625 0.4375 -0.40625 1.21875q0 0.734375 0.40625 1.171875q0.421875 0.4375 1.0625 0.4375zm6.84375 6.65625q0.65625 0 1.078125 -0.421875q0.421875 -0.4375 0.421875 -1.203125q0 -0.78125 -0.421875 -1.21875q-0.421875 -0.4375 -1.078125 -0.4375q-0.65625 0 -1.0625 0.4375q-0.40625 0.4375 -0.40625 1.21875q0 0.765625 0.40625 1.203125q0.40625 0.421875 1.0625 0.421875z" fill-rule="nonzero"/><path fill="#3d4351" d="m17.625 285.32025l-3.78125 -4.984375l-0.96875 1.15625l0 3.828125l-2.640625 0l0 -12.4375l2.640625 0l0 5.546875l4.40625 -5.546875l3.265625 0l-4.9375 5.828125l5.28125 6.609375l-3.265625 0zm15.287247 0l0 -8.71875l-3.5 8.71875l-1.15625 0l-3.515625 -8.71875l0 8.71875l-2.640625 0l0 -12.4375l3.703125 0l3.03125 7.515625l3.015625 -7.515625l3.734375 0l0 12.4375l-2.671875 0zm5.1385956 0l0 -12.4375l4.90625 0q2.9375 0 4.765625 1.71875q1.84375 1.703125 1.84375 4.5q0 2.78125 -1.84375 4.5q-1.828125 1.71875 -4.765625 1.71875l-4.90625 0zm4.90625 -2.328125q1.734375 0 2.8125 -1.09375q1.078125 -1.09375 1.078125 -2.796875q0 -1.765625 -1.03125 -2.828125q-1.03125 -1.0625 -2.859375 -1.0625l-2.265625 0l0 7.78125l2.265625 0z" fill-rule="nonzero"/><path fill="#3d4351" d="m94.75673 281.82025l0 -2.015625l4.46875 0l0 2.015625l-4.46875 0zm8.815628 3.5l0 -9.03125l-2.0625 2.109375l-1.515625 -1.578125l3.921875 -3.9375l2.3125 0l0 12.4375l-2.65625 0zm6.2770996 0.203125q-0.625 0 -1.078125 -0.4375q-0.4375 -0.453125 -0.4375 -1.078125q0 -0.609375 0.4375 -1.046875q0.453125 -0.453125 1.078125 -0.453125q0.609375 0 1.0625 0.453125q0.453125 0.4375 0.453125 1.046875q0 0.625 -0.453125 1.078125q-0.453125 0.4375 -1.0625 0.4375zm3.272705 -0.203125l4.46875 -10.109375l-6.265625 0l0 -2.328125l9.34375 0l0 1.84375l-4.625 10.59375l-2.921875 0zm13.198914 0.21875q-1.734375 0 -2.984375 -0.578125q-1.234375 -0.578125 -1.921875 -1.40625l1.375 -1.78125q0.65625 0.671875 1.578125 1.046875q0.9375 0.375 1.859375 0.375q1.140625 0 1.734375 -0.4375q0.609375 -0.4375 0.609375 -1.15625q0 -0.734375 -0.59375 -1.078125q-0.59375 -0.359375 -1.90625 -0.359375l-0.421875 0l-1.125 0.046875l0 -2.390625l0.6875 0.015625l0.859375 0q2.296875 0 2.296875 -1.328125q0 -0.734375 -0.671875 -1.09375q-0.65625 -0.375 -1.640625 -0.375q-1.8125 0 -3.15625 1.28125l-1.3125 -1.65625q1.75 -1.96875 4.75 -1.96875q2.203125 0 3.453125 0.921875q1.25 0.90625 1.25 2.453125q0 1.046875 -0.78125 1.84375q-0.765625 0.78125 -1.9375 0.984375q1.28125 0.15625 2.09375 1.0q0.8125 0.84375 0.8125 1.984375q0 1.640625 -1.359375 2.65625q-1.359375 1.0 -3.546875 1.0zm7.9199677 -0.21875l4.46875 -10.109375l-6.265625 0l0 -2.328125l9.34375 0l0 1.84375l-4.625 10.59375l-2.921875 0zm16.33429 -6.4375q-1.40625 0 -2.28125 -0.859375q-0.875 -0.859375 -0.875 -2.203125q0 -1.375 0.875 -2.25q0.875 -0.875 2.28125 -0.875q1.375 0 2.265625 0.875q0.90625 0.875 0.90625 2.25q0 1.34375 -0.890625 2.203125q-0.890625 0.859375 -2.28125 0.859375zm-1.21875 6.4375l7.953125 -12.4375l1.421875 0l-7.96875 12.4375l-1.40625 0zm8.0625 0.21875q-1.4375 0 -2.296875 -0.875q-0.859375 -0.890625 -0.859375 -2.203125q0 -1.375 0.875 -2.25q0.875 -0.875 2.28125 -0.875q1.375 0 2.265625 0.875q0.90625 0.875 0.90625 2.25q0 1.34375 -0.875 2.21875q-0.875 0.859375 -2.296875 0.859375zm-6.84375 -8.109375q0.65625 0 1.0625 -0.4375q0.40625 -0.4375 0.40625 -1.171875q0 -0.78125 -0.40625 -1.21875q-0.40625 -0.4375 -1.0625 -0.4375q-0.640625 0 -1.0625 0.4375q-0.40625 0.4375 -0.40625 1.21875q0 0.734375 0.40625 1.171875q0.421875 0.4375 1.0625 0.4375zm6.84375 6.65625q0.65625 0 1.078125 -0.421875q0.421875 -0.4375 0.421875 -1.203125q0 -0.78125 -0.421875 -1.21875q-0.421875 -0.4375 -1.078125 -0.4375q-0.65625 0 -1.0625 0.4375q-0.40625 0.4375 -0.40625 1.21875q0 0.765625 0.40625 1.203125q0.40625 0.421875 1.0625 0.421875z" fill-rule="nonzero"/></g></svg>